<svg width="58" height="58" viewBox="0 0 58 58" fill="none" xmlns="http://www.w3.org/2000/svg">
<g filter="url(#filter0_d_2107_21)">
<rect x="4" width="50" height="50" rx="14" fill="white"/>
<path d="M40.667 23.8276C40.1228 22.7173 39.7258 21.5242 39.7258 20.2877V18.6446C39.7258 17.0685 41.1009 15.576 41.1009 13.9998C41.1009 12.7838 40.1168 11.8 38.9008 11.8C37.6867 11.8 36.7007 12.7838 36.7007 13.9998C36.7007 14.6084 36.9477 15.1572 37.3465 15.5543C37.7235 15.9296 38.0758 16.3847 38.0758 16.9166C38.0758 18.0888 36.5768 18.7352 35.5837 18.1124C33.6471 16.8978 31.4004 16.1999 29.0008 16.1999C26.6011 16.1999 24.3549 16.8978 22.4183 18.1128C21.425 18.7359 19.9258 18.0894 19.9258 16.9169C19.9258 16.3848 20.2782 15.9296 20.6552 15.5541C21.0537 15.157 21.3006 14.6083 21.3006 13.9998C21.3006 12.7838 20.3165 11.8 19.1008 11.8C17.8864 11.8 16.901 12.7838 16.901 13.9998C16.901 15.5761 18.2758 17.068 18.2758 18.6443V20.286C18.2758 21.5242 17.8779 22.7189 17.333 23.8308C16.3576 25.8212 15.8008 28.0885 15.8008 30.4998C15.8008 34.7539 21.7111 38.2 29.0008 38.2C36.2928 38.2 42.2008 34.7539 42.2008 30.4998C42.2008 28.0864 41.6431 25.8187 40.667 23.8276ZM29.0008 32.6996C24.4425 32.6996 20.7508 31.7149 20.7508 30.4998C20.7508 30.4446 20.7511 30.3895 20.7516 30.3345C20.7926 26.4158 25.2029 25.0229 29.1218 24.9995C33.0434 24.9761 37.2104 26.419 37.25 30.3405C37.2505 30.3935 37.2508 30.4466 37.2508 30.4998C37.2508 31.7149 33.5568 32.6996 29.0008 32.6996Z" fill="url(#paint0_linear_2107_21)"/>
</g>
<defs>
<filter id="filter0_d_2107_21" x="0" y="0" width="58" height="58" filterUnits="userSpaceOnUse" color-interpolation-filters="sRGB">
<feFlood flood-opacity="0" result="BackgroundImageFix"/>
<feColorMatrix in="SourceAlpha" type="matrix" values="0 0 0 0 0 0 0 0 0 0 0 0 0 0 0 0 0 0 127 0" result="hardAlpha"/>
<feOffset dy="4"/>
<feGaussianBlur stdDeviation="2"/>
<feComposite in2="hardAlpha" operator="out"/>
<feColorMatrix type="matrix" values="0 0 0 0 0 0 0 0 0 0 0 0 0 0 0 0 0 0 0.07 0"/>
<feBlend mode="normal" in2="BackgroundImageFix" result="effect1_dropShadow_2107_21"/>
<feBlend mode="normal" in="SourceGraphic" in2="effect1_dropShadow_2107_21" result="shape"/>
</filter>
<linearGradient id="paint0_linear_2107_21" x1="13.7383" y1="20.05" x2="44.0497" y2="41.157" gradientUnits="userSpaceOnUse">
<stop stop-color="#5EA6F5"/>
<stop offset="0.384615" stop-color="#DC33B8"/>
<stop offset="0.716346" stop-color="#A47BCB"/>
<stop offset="0.9" stop-color="#81C43D"/>
</linearGradient>
</defs>
</svg>
